<mxfile modified="2022-07-07T05:09:46.469Z" host="app.diagrams.net" agent="5.0 (Windows NT 10.0; Win64; x64) AppleWebKit/537.36 (KHTML, like Gecko) Chrome/102.0.0.0 Safari/537.36" etag="lcLnAbcCAeFGU8xBipX6" version="20.0.4" type="github">
  <diagram id="Ht1M8jgEwFfnCIfOTk4-" name="Page-1">
    <mxGraphModel dx="1662" dy="794" grid="1" gridSize="10" guides="1" tooltips="1" connect="1" arrows="1" fold="1" page="1" pageScale="1" pageWidth="1169" pageHeight="827" math="0" shadow="0">
      <root>
        <mxCell id="0" />
        <mxCell id="1" parent="0" />
        <mxCell id="3Os0yLKOdWWhWIHhzTGb-8" value="" style="edgeStyle=orthogonalEdgeStyle;rounded=0;orthogonalLoop=1;jettySize=auto;html=1;" edge="1" parent="1" source="3Os0yLKOdWWhWIHhzTGb-2" target="3Os0yLKOdWWhWIHhzTGb-6">
          <mxGeometry relative="1" as="geometry" />
        </mxCell>
        <mxCell id="3Os0yLKOdWWhWIHhzTGb-2" value="" style="aspect=fixed;perimeter=ellipsePerimeter;html=1;align=center;shadow=0;dashed=0;spacingTop=3;image;image=img/lib/active_directory/internet_cloud.svg;" vertex="1" parent="1">
          <mxGeometry x="180" y="328.83" width="50" height="31.5" as="geometry" />
        </mxCell>
        <mxCell id="3Os0yLKOdWWhWIHhzTGb-7" value="" style="edgeStyle=orthogonalEdgeStyle;rounded=0;orthogonalLoop=1;jettySize=auto;html=1;" edge="1" parent="1" target="3Os0yLKOdWWhWIHhzTGb-2">
          <mxGeometry relative="1" as="geometry">
            <mxPoint x="108" y="345" as="sourcePoint" />
          </mxGeometry>
        </mxCell>
        <mxCell id="3Os0yLKOdWWhWIHhzTGb-11" value="" style="edgeStyle=orthogonalEdgeStyle;rounded=0;orthogonalLoop=1;jettySize=auto;html=1;" edge="1" parent="1" source="3Os0yLKOdWWhWIHhzTGb-6">
          <mxGeometry relative="1" as="geometry">
            <mxPoint x="410" y="345" as="targetPoint" />
          </mxGeometry>
        </mxCell>
        <mxCell id="3Os0yLKOdWWhWIHhzTGb-6" value="" style="aspect=fixed;perimeter=ellipsePerimeter;html=1;align=center;shadow=0;dashed=0;spacingTop=3;image;image=img/lib/active_directory/firewall.svg;" vertex="1" parent="1">
          <mxGeometry x="310" y="320" width="30" height="49.18" as="geometry" />
        </mxCell>
        <mxCell id="3Os0yLKOdWWhWIHhzTGb-9" value="" style="sketch=0;html=1;aspect=fixed;strokeColor=none;shadow=0;align=center;verticalAlign=top;fillColor=#3B8DF1;shape=mxgraph.gcp2.phone_android" vertex="1" parent="1">
          <mxGeometry x="50" y="295" width="56" height="100" as="geometry" />
        </mxCell>
        <mxCell id="3Os0yLKOdWWhWIHhzTGb-12" value="" style="pointerEvents=1;shadow=0;dashed=0;html=1;strokeColor=none;fillColor=#4495D1;labelPosition=center;verticalLabelPosition=bottom;verticalAlign=top;align=center;outlineConnect=0;shape=mxgraph.veeam.cluster;" vertex="1" parent="1">
          <mxGeometry x="500" y="319.97999999999996" width="102.8" height="49.2" as="geometry" />
        </mxCell>
        <mxCell id="3Os0yLKOdWWhWIHhzTGb-15" value="" style="edgeStyle=orthogonalEdgeStyle;rounded=0;orthogonalLoop=1;jettySize=auto;html=1;" edge="1" parent="1" source="3Os0yLKOdWWhWIHhzTGb-14" target="3Os0yLKOdWWhWIHhzTGb-12">
          <mxGeometry relative="1" as="geometry" />
        </mxCell>
        <mxCell id="3Os0yLKOdWWhWIHhzTGb-14" value="" style="fillColor=#28A8E0;verticalLabelPosition=bottom;sketch=0;html=1;strokeColor=#ffffff;verticalAlign=top;align=center;points=[[0.145,0.145,0],[0.5,0,0],[0.855,0.145,0],[1,0.5,0],[0.855,0.855,0],[0.5,1,0],[0.145,0.855,0],[0,0.5,0]];pointerEvents=1;shape=mxgraph.cisco_safe.compositeIcon;bgIcon=ellipse;resIcon=mxgraph.cisco_safe.capability.load_balancer;" vertex="1" parent="1">
          <mxGeometry x="400" y="323.08000000000004" width="43" height="43" as="geometry" />
        </mxCell>
      </root>
    </mxGraphModel>
  </diagram>
</mxfile>
